<?xml version="1.0" encoding="utf-8"?>
<!-- Generator: Adobe Illustrator 17.0.2, SVG Export Plug-In . SVG Version: 6.00 Build 0)  -->
<!DOCTYPE svg PUBLIC "-//W3C//DTD SVG 1.1//EN" "http://www.w3.org/Graphics/SVG/1.1/DTD/svg11.dtd">
<svg version="1.1" xmlns="http://www.w3.org/2000/svg" xmlns:xlink="http://www.w3.org/1999/xlink" x="0px" y="0px" width="768px"
	 height="1024px" viewBox="0 0 768 1024" enable-background="new 0 0 768 1024" xml:space="preserve">
<g id="Sky">
	<rect id="SkyColor" x="-220.7" y="-591.6" fill="#1F1F1B" width="3831.4" height="2076.7"/>
	<g id="OtherSkiesIllustratorOnly" display="none">
		<rect id="SkyColor_1_" x="-240" y="-609.7" display="inline" fill="#52524B" width="3831.4" height="2076.7"/>
	</g>
	<g id="Moon" display="none">
		<circle display="inline" fill="#F9F5EF" cx="561.5" cy="213.6" r="6.8"/>
		<circle display="inline" fill="#F9F5EF" cx="590.5" cy="186.9" r="12.2"/>
		<circle display="inline" fill="#F9F5EF" cx="563.6" cy="168.4" r="4.8"/>
		<circle display="inline" fill="#F9F5EF" cx="615.3" cy="170.1" r="4.8"/>
		<circle display="inline" fill="#F9F5EF" cx="565.8" cy="132.9" r="10.6"/>
		<circle display="inline" fill="#F9F5EF" cx="527.3" cy="219.2" r="6.1"/>
		<path display="inline" fill="#F9F5EF" d="M610.3,222.3c-1.1-2.2-3.4-3.8-6-3.8c-3.7,0-6.8,3-6.8,6.8c0,2.4,1.2,4.5,3.1,5.7
			C604.1,228.4,607.4,225.5,610.3,222.3z"/>
		<path display="inline" fill="#F9F5EF" d="M531.2,155.4c0-6.2-3.8-11.6-9.3-13.8c-6.7,7.2-11.6,16.1-14.1,26
			c2.4,1.7,5.3,2.7,8.5,2.7C524.5,170.3,531.2,163.6,531.2,155.4z"/>
		<circle id="XMLID_25_" display="inline" fill="#E6E4E4" cx="565.9" cy="182.2" r="59.9"/>
	</g>
	<g id="Stars">
		<g>

				<line fill="none" stroke="#FFFFFF" stroke-width="0.5839" stroke-linejoin="bevel" stroke-miterlimit="10" x1="134.9" y1="233.8" x2="134.9" y2="242"/>

				<line fill="none" stroke="#FFFFFF" stroke-width="0.5839" stroke-linejoin="bevel" stroke-miterlimit="10" x1="132.4" y1="237.9" x2="137.4" y2="237.9"/>
		</g>
		<g>

				<line fill="none" stroke="#FFFFFF" stroke-width="0.5839" stroke-linejoin="bevel" stroke-miterlimit="10" x1="226.1" y1="183.4" x2="226.1" y2="191.7"/>

				<line fill="none" stroke="#FFFFFF" stroke-width="0.5839" stroke-linejoin="bevel" stroke-miterlimit="10" x1="223.7" y1="187.6" x2="228.7" y2="187.6"/>
		</g>
		<g>

				<line fill="none" stroke="#FFFFFF" stroke-width="0.5839" stroke-linejoin="bevel" stroke-miterlimit="10" x1="383.9" y1="352.2" x2="383.9" y2="360.4"/>

				<line fill="none" stroke="#FFFFFF" stroke-width="0.5839" stroke-linejoin="bevel" stroke-miterlimit="10" x1="381.5" y1="356.3" x2="386.5" y2="356.3"/>
		</g>
		<g>

				<line fill="none" stroke="#FFFFFF" stroke-width="0.5839" stroke-linejoin="bevel" stroke-miterlimit="10" x1="689.6" y1="399.6" x2="689.6" y2="407.8"/>

				<line fill="none" stroke="#FFFFFF" stroke-width="0.5839" stroke-linejoin="bevel" stroke-miterlimit="10" x1="687.1" y1="403.7" x2="692.1" y2="403.7"/>
		</g>
		<g>

				<line fill="none" stroke="#FFFFFF" stroke-width="0.5839" stroke-linejoin="bevel" stroke-miterlimit="10" x1="357" y1="98.4" x2="357" y2="106.6"/>

				<line fill="none" stroke="#FFFFFF" stroke-width="0.5839" stroke-linejoin="bevel" stroke-miterlimit="10" x1="354.5" y1="102.5" x2="359.5" y2="102.5"/>
		</g>
		<g>

				<line fill="none" stroke="#FFFFFF" stroke-width="0.5839" stroke-linejoin="bevel" stroke-miterlimit="10" x1="52.3" y1="78.9" x2="52.3" y2="87.2"/>

				<line fill="none" stroke="#FFFFFF" stroke-width="0.5839" stroke-linejoin="bevel" stroke-miterlimit="10" x1="49.9" y1="83.1" x2="54.9" y2="83.1"/>
		</g>
		<g>

				<line fill="none" stroke="#FFFFFF" stroke-width="0.5839" stroke-linejoin="bevel" stroke-miterlimit="10" x1="21.8" y1="22.9" x2="21.8" y2="31.2"/>

				<line fill="none" stroke="#FFFFFF" stroke-width="0.5839" stroke-linejoin="bevel" stroke-miterlimit="10" x1="19.4" y1="27.1" x2="24.4" y2="27.1"/>
		</g>
		<g>

				<line fill="none" stroke="#FFFFFF" stroke-width="0.5839" stroke-linejoin="bevel" stroke-miterlimit="10" x1="16.8" y1="220.5" x2="16.8" y2="228.7"/>

				<line fill="none" stroke="#FFFFFF" stroke-width="0.5839" stroke-linejoin="bevel" stroke-miterlimit="10" x1="14.4" y1="224.6" x2="19.4" y2="224.6"/>
		</g>
		<g>

				<line fill="none" stroke="#FFFFFF" stroke-width="0.5839" stroke-linejoin="bevel" stroke-miterlimit="10" x1="14.3" y1="352.2" x2="14.3" y2="360.4"/>

				<line fill="none" stroke="#FFFFFF" stroke-width="0.5839" stroke-linejoin="bevel" stroke-miterlimit="10" x1="11.9" y1="356.3" x2="16.9" y2="356.3"/>
		</g>
		<g>

				<line fill="none" stroke="#FFFFFF" stroke-width="0.5839" stroke-linejoin="bevel" stroke-miterlimit="10" x1="307.3" y1="262.9" x2="307.3" y2="271.2"/>

				<line fill="none" stroke="#FFFFFF" stroke-width="0.5839" stroke-linejoin="bevel" stroke-miterlimit="10" x1="304.8" y1="267.1" x2="309.8" y2="267.1"/>
		</g>
		<g>

				<line fill="none" stroke="#FFFFFF" stroke-width="0.5839" stroke-linejoin="bevel" stroke-miterlimit="10" x1="280.2" y1="63.6" x2="280.2" y2="71.8"/>

				<line fill="none" stroke="#FFFFFF" stroke-width="0.5839" stroke-linejoin="bevel" stroke-miterlimit="10" x1="277.8" y1="67.7" x2="282.8" y2="67.7"/>
		</g>
		<g>

				<line fill="none" stroke="#FFFFFF" stroke-width="0.5839" stroke-linejoin="bevel" stroke-miterlimit="10" x1="597.1" y1="14.7" x2="597.1" y2="22.9"/>

				<line fill="none" stroke="#FFFFFF" stroke-width="0.5839" stroke-linejoin="bevel" stroke-miterlimit="10" x1="594.7" y1="18.8" x2="599.7" y2="18.8"/>
		</g>
		<g>

				<line fill="none" stroke="#FFFFFF" stroke-width="0.5839" stroke-linejoin="bevel" stroke-miterlimit="10" x1="583.2" y1="419.6" x2="583.2" y2="427.8"/>

				<line fill="none" stroke="#FFFFFF" stroke-width="0.5839" stroke-linejoin="bevel" stroke-miterlimit="10" x1="580.8" y1="423.7" x2="585.8" y2="423.7"/>
		</g>
		<g>

				<line fill="none" stroke="#FFFFFF" stroke-width="0.5839" stroke-linejoin="bevel" stroke-miterlimit="10" x1="472.1" y1="561.9" x2="472.1" y2="570.2"/>

				<line fill="none" stroke="#FFFFFF" stroke-width="0.5839" stroke-linejoin="bevel" stroke-miterlimit="10" x1="469.6" y1="566.1" x2="474.6" y2="566.1"/>
		</g>
		<g>

				<line fill="none" stroke="#FFFFFF" stroke-width="0.5839" stroke-linejoin="bevel" stroke-miterlimit="10" x1="490" y1="442.9" x2="490" y2="451.2"/>

				<line fill="none" stroke="#FFFFFF" stroke-width="0.5839" stroke-linejoin="bevel" stroke-miterlimit="10" x1="487.5" y1="447.1" x2="492.5" y2="447.1"/>
		</g>
		<g>

				<line fill="none" stroke="#FFFFFF" stroke-width="0.5839" stroke-linejoin="bevel" stroke-miterlimit="10" x1="684.6" y1="680.9" x2="684.6" y2="689.2"/>

				<line fill="none" stroke="#FFFFFF" stroke-width="0.5839" stroke-linejoin="bevel" stroke-miterlimit="10" x1="682.1" y1="685.1" x2="687.1" y2="685.1"/>
		</g>
		<g>

				<line fill="none" stroke="#FFFFFF" stroke-width="0.5839" stroke-linejoin="bevel" stroke-miterlimit="10" x1="482.4" y1="803.1" x2="482.4" y2="811.3"/>

				<line fill="none" stroke="#FFFFFF" stroke-width="0.5839" stroke-linejoin="bevel" stroke-miterlimit="10" x1="480" y1="807.2" x2="485" y2="807.2"/>
		</g>
		<g>

				<line fill="none" stroke="#FFFFFF" stroke-width="0.5839" stroke-linejoin="bevel" stroke-miterlimit="10" x1="329.8" y1="519.9" x2="329.8" y2="528.2"/>

				<line fill="none" stroke="#FFFFFF" stroke-width="0.5839" stroke-linejoin="bevel" stroke-miterlimit="10" x1="327.4" y1="524.1" x2="332.4" y2="524.1"/>
		</g>
		<g>

				<line fill="none" stroke="#FFFFFF" stroke-width="0.5839" stroke-linejoin="bevel" stroke-miterlimit="10" x1="112.5" y1="480.9" x2="112.5" y2="489.2"/>

				<line fill="none" stroke="#FFFFFF" stroke-width="0.5839" stroke-linejoin="bevel" stroke-miterlimit="10" x1="110.1" y1="485.1" x2="115.1" y2="485.1"/>
		</g>
		<g>

				<line fill="none" stroke="#FFFFFF" stroke-width="0.5839" stroke-linejoin="bevel" stroke-miterlimit="10" x1="334.8" y1="696.8" x2="334.8" y2="705"/>

				<line fill="none" stroke="#FFFFFF" stroke-width="0.5839" stroke-linejoin="bevel" stroke-miterlimit="10" x1="332.4" y1="700.9" x2="337.4" y2="700.9"/>
		</g>
		<g>

				<line fill="none" stroke="#FFFFFF" stroke-width="0.5839" stroke-linejoin="bevel" stroke-miterlimit="10" x1="334.8" y1="873" x2="334.8" y2="881.2"/>

				<line fill="none" stroke="#FFFFFF" stroke-width="0.5839" stroke-linejoin="bevel" stroke-miterlimit="10" x1="332.4" y1="877.1" x2="337.4" y2="877.1"/>
		</g>
		<g>

				<line fill="none" stroke="#FFFFFF" stroke-width="0.5839" stroke-linejoin="bevel" stroke-miterlimit="10" x1="639.8" y1="926.4" x2="639.8" y2="934.7"/>

				<line fill="none" stroke="#FFFFFF" stroke-width="0.5839" stroke-linejoin="bevel" stroke-miterlimit="10" x1="637.4" y1="930.5" x2="642.4" y2="930.5"/>
		</g>
		<g>

				<line fill="none" stroke="#FFFFFF" stroke-width="0.5839" stroke-linejoin="bevel" stroke-miterlimit="10" x1="544.5" y1="305.9" x2="544.5" y2="314.2"/>

				<line fill="none" stroke="#FFFFFF" stroke-width="0.5839" stroke-linejoin="bevel" stroke-miterlimit="10" x1="542" y1="310.1" x2="547" y2="310.1"/>
		</g>
		<g>

				<line fill="none" stroke="#FFFFFF" stroke-width="0.5839" stroke-linejoin="bevel" stroke-miterlimit="10" x1="485" y1="254.7" x2="485" y2="262.9"/>

				<line fill="none" stroke="#FFFFFF" stroke-width="0.5839" stroke-linejoin="bevel" stroke-miterlimit="10" x1="482.5" y1="258.8" x2="487.5" y2="258.8"/>
		</g>
		<g>

				<line fill="none" stroke="#FFFFFF" stroke-width="0.5839" stroke-linejoin="bevel" stroke-miterlimit="10" x1="482.5" y1="73.1" x2="482.5" y2="81.3"/>

				<line fill="none" stroke="#FFFFFF" stroke-width="0.5839" stroke-linejoin="bevel" stroke-miterlimit="10" x1="480" y1="77.2" x2="485" y2="77.2"/>
		</g>
		<g>

				<line fill="none" stroke="#FFFFFF" stroke-width="0.5839" stroke-linejoin="bevel" stroke-miterlimit="10" x1="736.5" y1="168.1" x2="736.5" y2="176.3"/>

				<line fill="none" stroke="#FFFFFF" stroke-width="0.5839" stroke-linejoin="bevel" stroke-miterlimit="10" x1="734" y1="172.2" x2="739" y2="172.2"/>
		</g>
		<g>

				<line fill="none" stroke="#FFFFFF" stroke-width="0.5839" stroke-linejoin="bevel" stroke-miterlimit="10" x1="739" y1="126.3" x2="739" y2="134.5"/>

				<line fill="none" stroke="#FFFFFF" stroke-width="0.5839" stroke-linejoin="bevel" stroke-miterlimit="10" x1="736.5" y1="130.4" x2="741.5" y2="130.4"/>
		</g>
		<g>

				<line fill="none" stroke="#FFFFFF" stroke-width="0.5839" stroke-linejoin="bevel" stroke-miterlimit="10" x1="724.5" y1="139.6" x2="724.5" y2="147.8"/>

				<line fill="none" stroke="#FFFFFF" stroke-width="0.5839" stroke-linejoin="bevel" stroke-miterlimit="10" x1="722" y1="143.7" x2="727" y2="143.7"/>
		</g>
		<g>

				<line fill="none" stroke="#FFFFFF" stroke-width="0.5839" stroke-linejoin="bevel" stroke-miterlimit="10" x1="722" y1="112.9" x2="722" y2="121.2"/>

				<line fill="none" stroke="#FFFFFF" stroke-width="0.5839" stroke-linejoin="bevel" stroke-miterlimit="10" x1="719.5" y1="117.1" x2="724.5" y2="117.1"/>
		</g>
		<g>

				<line fill="none" stroke="#FFFFFF" stroke-width="0.5839" stroke-linejoin="bevel" stroke-miterlimit="10" x1="738.9" y1="3.6" x2="738.9" y2="11.8"/>

				<line fill="none" stroke="#FFFFFF" stroke-width="0.5839" stroke-linejoin="bevel" stroke-miterlimit="10" x1="736.5" y1="7.7" x2="741.5" y2="7.7"/>
		</g>
		<g>

				<line fill="none" stroke="#FFFFFF" stroke-width="0.5839" stroke-linejoin="bevel" stroke-miterlimit="10" x1="68.9" y1="258.8" x2="68.9" y2="267.1"/>

				<line fill="none" stroke="#FFFFFF" stroke-width="0.5839" stroke-linejoin="bevel" stroke-miterlimit="10" x1="66.5" y1="262.9" x2="71.5" y2="262.9"/>
		</g>
		<g>

				<line fill="none" stroke="#FFFFFF" stroke-width="0.5839" stroke-linejoin="bevel" stroke-miterlimit="10" x1="395.8" y1="181.4" x2="395.8" y2="189.7"/>

				<line fill="none" stroke="#FFFFFF" stroke-width="0.5839" stroke-linejoin="bevel" stroke-miterlimit="10" x1="393.4" y1="185.6" x2="398.4" y2="185.6"/>
		</g>
		<g>

				<line fill="none" stroke="#FFFFFF" stroke-width="0.5839" stroke-linejoin="bevel" stroke-miterlimit="10" x1="141.9" y1="395.4" x2="141.9" y2="403.7"/>

				<line fill="none" stroke="#FFFFFF" stroke-width="0.5839" stroke-linejoin="bevel" stroke-miterlimit="10" x1="139.5" y1="399.6" x2="144.5" y2="399.6"/>
		</g>
		<g>

				<line fill="none" stroke="#FFFFFF" stroke-width="0.5839" stroke-linejoin="bevel" stroke-miterlimit="10" x1="132.6" y1="387.2" x2="132.6" y2="395.4"/>

				<line fill="none" stroke="#FFFFFF" stroke-width="0.5839" stroke-linejoin="bevel" stroke-miterlimit="10" x1="130.2" y1="391.3" x2="135.2" y2="391.3"/>
		</g>
		<g>

				<line fill="none" stroke="#FFFFFF" stroke-width="0.4346" stroke-linejoin="bevel" stroke-miterlimit="10" x1="416.5" y1="166.8" x2="416.5" y2="172.2"/>

				<line fill="none" stroke="#FFFFFF" stroke-width="0.4346" stroke-linejoin="bevel" stroke-miterlimit="10" x1="414.4" y1="169.5" x2="418.7" y2="169.5"/>
		</g>
		<g>

				<line fill="none" stroke="#FFFFFF" stroke-width="0.4346" stroke-linejoin="bevel" stroke-miterlimit="10" x1="146.9" y1="239.4" x2="146.9" y2="244.7"/>

				<line fill="none" stroke="#FFFFFF" stroke-width="0.4346" stroke-linejoin="bevel" stroke-miterlimit="10" x1="144.8" y1="242" x2="149.1" y2="242"/>
		</g>
		<g>

				<line fill="none" stroke="#FFFFFF" stroke-width="0.4346" stroke-linejoin="bevel" stroke-miterlimit="10" x1="696.1" y1="67.7" x2="696.1" y2="73.1"/>

				<line fill="none" stroke="#FFFFFF" stroke-width="0.4346" stroke-linejoin="bevel" stroke-miterlimit="10" x1="694" y1="70.4" x2="698.3" y2="70.4"/>
		</g>
		<g>

				<line fill="none" stroke="#FFFFFF" stroke-width="0.4346" stroke-linejoin="bevel" stroke-miterlimit="10" x1="671.4" y1="284.4" x2="671.4" y2="289.7"/>

				<line fill="none" stroke="#FFFFFF" stroke-width="0.4346" stroke-linejoin="bevel" stroke-miterlimit="10" x1="669.4" y1="287.1" x2="673.6" y2="287.1"/>
		</g>
		<g>

				<line fill="none" stroke="#FFFFFF" stroke-width="0.4346" stroke-linejoin="bevel" stroke-miterlimit="10" x1="104.6" y1="67.7" x2="104.6" y2="73.1"/>

				<line fill="none" stroke="#FFFFFF" stroke-width="0.4346" stroke-linejoin="bevel" stroke-miterlimit="10" x1="102.5" y1="70.4" x2="106.7" y2="70.4"/>
		</g>
	</g>
	<path fill="#1F1F1B" d="M217.4,486.1"/>
</g>
<g id="Clouds">
	<path id="Cloud5" opacity="0.8" fill="#F2F1F1" d="M-175.2,38.5c16.9-6.9,29.5-20.9,45.8-28.8c16.9-8.2,37.5-6.4,55.2-1.5
		c15.1,4.2,31.3,10.6,47.8,7.6C-17.7,14.3-14,8.5-6.7,4.8C2.6,0,15.9-0.6,26.2-0.9c16.3-0.6,22.2,6.8,36.2,14.3
		c17,9.1,23.1,29.5,43.9,28.7c10.5-0.4,11-0.5,13-10c0.8-3.9,1.7-10.8,1-14.8c-1.4-7.4-24-24.6-15.3-34.5c4.7-5.3,21.5,1.4,27.3,3.5
		c12.3,4.4,12.9,16.7,24,22c5.6,2.7,12.4,2.9,18.2,5.5c8.8,4,16.2,10.2,23.8,16.2c15.8,12.6,26.7,8,45.9,10
		c15,1.6,37.3-2.7,51.2,4.2c11.7,5.9,10.7,17.9,24.4,22.5c11.5,3.8,19,5.9,27.5,14.9c4.3,4.5,8.6,14.3,15.3,16.6
		c7.2,2.4,20.8-2.2,29-2.2c8,0,15.7-0.2,23.5-2.2c8.2-2.2,14.2-5.3,23.2-4.8c9.2,0.5,10.9,3.7,18.9,6.8c8,3.1,15.1,0.8,23,2.4
		c9.3,1.9,12.1,7.6,19,12.4c13.3,9.1,33.3-2.5,49.1,5.6c7.9,4.1,9.4,8.1,18.9,9.8c6.4,1.2,13.7,0.6,19,4.9c6.5,5.3,5.7,19.2,12,23.3
		c3.2,2.1,9.7,0.4,13.5,0.7c18,1.4,13.1,12.6,23.9,22.1c4.4,3.8,9.7,1.9,14.3,4.8c4.7,2.9,8.8,11,10,16.1c1.3,5.8-1.8,12.7,2.2,17.3
		c2.3,2.7,8.7,2.1,11.6,3.6c3.8,1.9,5.5,4.6,8.4,7.1c11,9.1,16.1,9,29.7,10.2c14.5,1.3,22.4,12.7,35.4,15
		c1.3-15.7,19.9-15.1,28.1-4.5c1.9,2.4,2.1,6.2,4.5,8.3c2.1,1.9,5.9,1.2,8.3,2.9c9.8,7.1,15,18.6,25.3,26.1
		c9.2,6.7,13.6,19.8,21,27.7c12.1,13,17.2,23.4,15.3,42c-0.9,8.7-4.5,6.4-2.1,15.7c1.8,6.8,8,10.6,12,15.2
		c6.3,7.3,14.8,13.6,18.5,23c2.5,6.5,8.7,29,8.2,35.2c-1.8,22.1-31.8,14.7-19.5,40.6c5.7,12,21.3,17.5,18,33
		c-3.9,18.2-29,24.7-40.3,35.9c-12.4,12.3-3.6,18.8-4.3,34.9c-1,25-31,22.1-52.2,26.6c-17.9,3.8-49.4,9.3-62.2,23
		c-11.2,11.9-9.2,16.8-28.9,18.9c-34,3.6-68.8-5.6-102.9-5.7c-24.1-0.1-34.8,7.2-56,13.8c-26.1,8.1-66.5,0.4-80.2-23.9
		c-9.3-16.5-7.5-13.7-27.6-15.4c-15.8-1.3-19.8-5.6-29.5-18.8c-15.9-21.7-27.7-40.2-54.2-47.2c-13.2-3.5-14-2.5-23-14.6
		c-10.3-13.9-17.6-22.8-35.7-24.4c-14.6-1.3-19.6,5.6-31.9,9.3c-12.3,3.7-25.5-1.2-36.4-1.8c-11.6-0.6-12.5-0.8-20.5,11.2
		c-13.2,19.8-22.2,26.6-47.8,27.9c-18.4,0.9-30.4-8.4-48.9-3.4c-21.5,5.8-41.8,25.4-61.7,25c-21.6-0.4-43.1-9.3-45.3-30
		c-1.7-16.5,1.9-16.9-12.3-25c-13.1-7.4-40.1-8.4-49.2-17.5c-11-11-12.5-33-25.2-43.7c-21.1-17.6-50.6-13.2-72.3-25.3
		c-19.1-10.7-14.7-31.4-19.4-49.6c-3.6-14-13.6-24.5-21.4-36c-14.1-20.8-25.4-51.4-33.2-75.1c-5.7-17.5,1-35.4-1.3-53.4
		c-3.4-25.5,6.6-48.3-11.9-69.3c-10.7-12.1-14-9.1-25.3-15.1c-13.9-7.4-17.1-20.2-24-32c-13.5-23.1-42.8-42.9-69-50.4
		c-23.8-6.9-33.6-10-31.3-39c13.7-0.9,30.3,0.3,43.4,4.9c13,4.6,34,19.8,49.5,14.6c11.7-3.9,19.6-17.8,34.6-21.3
		c25.8-6,43.1,4.6,66.2,14C-194.6,43.4-184.5,42.4-175.2,38.5z"/>
	<path id="Cloud4" fill="#EBEBEB" d="M-422.6,598.2c6.4-8.6,13.4-16.8,21.9-23.8c19.3-15.9,23.7-13,46.1-6.4
		c25.8,7.6,63.9,14.6,81.9-9.7c10.7-14.3,13.8-25.6,30.6-35.6c21.4-12.7,38.3-2.4,60.2,1.4c40.9,7.2,101.5,9.7,140.7-6.1
		c18.3-7.4,24.5-15,32.4-31.4c4.7-9.8,6-16.5,16-22.2c18.2-10.4,25.4-1.2,39.4,2.8c14.6,4.1,30.3,0.1,45.1-1.4
		c24.5-2.5,53.5-1.7,74.8,11c19.3,11.5,23.5,9.6,44.6,6.6c26-3.6,47.1,5.8,69.2,18c16,8.9,23.6,22.2,42.6,22.7
		c22.7,0.6,48.9-15.3,71.5-9.2c15.6,4.2,31.2,19.9,44.3,28c12.4,7.7,24.3,10.8,34.4,23.5c12.8,16.2,10.9,18.8,2.2,34.4
		c-11.2,20.1-6.5,10.5,7.8,20.3c7.8,5.4,11.7,14.6,10.4,24.2c-21.5,8.3-41.5,6.3-44.9,33.2c-1.7,13.5,4.8,16.8-7.8,27.1
		c-11.5,9.4-25.9,3.1-36.9,10c-19.9,12.4,13.8,24.7,1.3,39.5c-16,18.9-73.2-11.4-91.6,7.8c-3.8,4,0.3,11.1-2.9,16.3
		c-5.9,9.6-19.8,9.5-29.1,7.6c-18.1-3.6-33-16.6-52.1-16.8c-14.2-0.1-29.4,5.6-43.2,8.9c-11.6,2.8-24.5,7.6-36.6,4.1
		c-9.7-2.8-15.2-12.1-24.1-15.9c-15.4-6.6-33.3-1.9-49,1.3c-13.4,2.8-32.6,14-44.9,14.2c-11.3,0.2-16.1-4.5-26.3-12.1
		c-22.9-17-53.8-11.8-79.6-5.8c-11.7,2.7-23.2,9.6-34.6,11.7c-13,2.5-25.1-5.7-38.1-2.1c-29.1,8-46.4,27-79.3,22.2
		c-36.4-5.3-56.4-27.8-89.1-3.3c-24.5,18.3-60.5,23-89.8,9.5c-24.3-11.2-33.7-15.3-63.1-11.8c-20.3,2.4-43.6,14.6-63.8,6.5
		c-18.1-7.3-29.6-24.3-49.9-29.2c-19.2-4.6-94,11.4-85.7-31c4.7-23.9,38.5-22.2,55.9-19.5c17.3,2.7,28.9,3,42.9-9.6
		c11.4-10.3,8.2-26.1,23.4-34.3c29.4-15.8,62.5-2,88.8-29.8C-443.5,630.2-434,613.6-422.6,598.2z"/>
	<path id="Cloud3" fill="#F2F1F1" d="M-29.4,591.5c25-1.5,41.5-14.5,65.9-16.3c18.7-1.4,40.6-2,58.3,4.1c13.3,4.6,24.8,13.9,38,18.5
		c38.3,13.4,58.8-28.3,94.5-27.2c16.7,0.5,24,3.6,33.9,15.4c2,2.4,1.1,5,3.1,7.1c5.1,5.5,20.5,16.6,28.3,17.9
		c16.6,2.9,62-12.1,55.8,22.4c-3.7,20.8-31.6,22.5-18.1,45.9c17.9,31.1,48.1,16.3,75,18.9c35.8,3.4,75.9,10,93.1,43.9
		c6.2,12.2,10.4,23.2,19.6,34c11.5,13.6,30.4,15.3,43.2,28.2c18.6,18.7,3.3,43.4,16.4,61.9c5.8,8.2,21.1,7.5,26,15.7
		c3.5,5.9,0.1,13,0.1,18.9c0,15.2,3.6,30.1,7.1,45c6.1,25.8,17.8,47.8,38.7,64.3c21.1,16.7,74.2,41.8,70.7,74
		c-4.2,39.1-50.8,23.4-76.3,31.1c-17,5.1-19.8,21.7-39.4,26.9c-25.3,6.8-64.8,9.8-90.6,5.9c-17.2-2.6-26.9-9.7-45.3-8.8
		c-10.9,0.5-26.1-0.4-36.4,3.3c-7.7,2.7-13.8,12-22.3,14.7c-28.7,9.1-64.7-2-93.7-5.5c-20.3-2.5-50.2-9.8-69.8-1.7
		c-7.8,3.3-10.9,10.3-18.3,13.8c-33.8,16.1-67-7.4-98.3-12.6c-20.6-3.4-40.3,6.4-60.4,10.3c-32.5,6.4-63.8-3.3-96.5-5.5
		c-27-1.8-58.3-8.3-85.1-3.7c-23.3,4-44.5,14-68.6,17c-28,3.5-34-4.2-52.8-20.8c-16.3-14.4-22.3-2.2-39,3.1
		c-13.9,4.4-24.7-0.2-36.6-4.8c-20.4-7.9-38.1-8.4-59-12.6c-39.7-8.1-90.5-36.3-132.4-26.2c-13.3,3.2-22.5,13.9-36,16.3
		c-17.2,3.1-34.4-3.7-49.8-10.6c-13.9-6.2-24.8-13.3-40.3-9.1c-14.8,3.9-23.3,14.8-38.5,16.6c-29.9,3.4-49.1-20.2-79.7-15
		c-18.9,3.3-23.8,20.4-41.1,26.8c-16.9,6.3-43.8,1.5-51.7-16.4c-12.3-27.7,27.7-33.3,28.6-54.4c0.7-16.5-36.4-26.7-42.8-41.3
		c-16.7-38.7,36-41.7,43.8-68.1c4.5-15.5-5.8-25.4,5.3-39.7c8.9-11.4,26.2-26.5,41.6-26c15,0.5,29.8,16.8,44.5,6
		c8-5.9,11.3-15.3,23.1-21.3c22.7-11.6,99.2-12,106.2-44.7c-16.8-4.7-14.2-6.4-13.4-21.8c0.4-7.3-2.6-18.6-0.1-25.1
		c8.5-21.7,57.2-18.2,77-12.7c32.3,8.8,49,9.8,69.1-21.2c16.6-25.7,30-16.9,56.4-25.6c14.1-4.7,41.7-15.3,51.7-25.9
		c7.2-7.6,6.4-20.6,14.5-27.8c19.7-17.4,52.1-1.5,74.7-8.1c17.2-5.1,18.2-19.2,31.3-27.8c10.9-7.1,12.9-2.9,24.4-1.7
		c17.3,1.8,47.7,1.8,64.2-5.4c17.9-7.8,21.1-31.8,42.9-34.9c21.1-2.9,40.8,2.9,61.6,2.7C-32.1,591.6-30.7,591.6-29.4,591.5z"/>
	<g id="Logo">
		<g>
			<g>
				<g>
					<rect x="125.4" y="284.4" fill="none" width="544" height="872.6"/>
					<path fill="#E2E200" d="M137.9,495.1V284.4h42.6v181.5h41.9v29.3H137.9z"/>
					<path fill="#E2E200" d="M233.3,425.8V355c0-49.8,20.5-74.7,61.6-74.7c41.1,0,61.7,24.9,61.7,74.7v69.8c0,8.4-0.6,16.2-1.9,23.4
						c-1.2,7.1-3.4,13.9-6.4,20.3c-3,6.4-6.8,11.8-11.5,16.3c-4.6,4.5-10.5,8-17.6,10.6c-7.1,2.6-15.2,3.9-24.4,3.9
						c-9.1,0-17.1-1.3-24.2-3.8c-7.1-2.5-13-6-17.6-10.3c-4.6-4.3-8.4-9.6-11.4-15.9c-3-6.3-5.2-13-6.4-20.1
						C234,442,233.3,434.3,233.3,425.8z M314,435.4v-91.1c0-20.8-6.4-31.1-19.1-31.1c-3.8,0-7.1,1-9.7,2.9c-2.7,1.9-4.6,4.5-5.9,7.8
						c-1.2,3.3-2.1,6.6-2.6,9.8c-0.5,3.2-0.8,6.8-0.8,10.6v91.1c0,20.7,6.3,31,19,31C307.6,466.5,314,456.1,314,435.4z"/>
					<path fill="#E2E200" d="M366.2,495.1l45.5-210.8h37.7l45.4,210.8h-42l-8.7-45.1h-27.5l-8.2,45.1H366.2z M419.6,423.8h21.8
						l-10.7-78.2L419.6,423.8z"/>
					<path fill="#E2E200" d="M508.5,495.1V284.4h44c14.1,0,25.6,1.3,34.7,3.8c9.1,2.5,16.2,6.7,21.4,12.5
						c5.2,5.8,8.8,12.8,10.8,20.9c2,8.1,3,18.5,3,31v69.1c0,7.5-0.2,14-0.7,19.6c-0.5,5.6-1.3,11-2.6,16.4c-1.3,5.3-3,9.9-5.3,13.6
						c-2.2,3.7-5.1,7.2-8.6,10.4c-3.5,3.2-7.7,5.7-12.7,7.6c-5,1.9-10.8,3.3-17.4,4.3c-6.7,1-14.3,1.5-23,1.5H508.5z M552.7,465.3
						c4.1,0,7.3-0.1,9.6-0.2s4.7-0.4,7-0.9s4.1-1.1,5.2-1.9c1.1-0.8,2.1-2,3-3.6c0.9-1.6,1.5-3.4,1.8-5.6c0.3-2.1,0.4-4.8,0.4-8
						V331.7c0-6.9-2.1-11.6-6.2-13.8c-4.1-2.3-11.1-3.4-20.8-3.5V465.3z"/>
					<path fill="#E2E200" d="M137.9,735.1V524.4h42.6v210.8H137.9z"/>
					<path fill="#E2E200" d="M205.6,735.1V524.3h30.7l46.3,110.3V524.3h35.4v210.9h-29.5l-46.1-117v117H205.6z"/>
					<path fill="#E2E200" d="M340.2,669.2V595c0-49.8,20.7-74.7,62.2-74.7c8.7,0,16.5,1.2,23.4,3.5c6.8,2.3,12.5,5.5,17.2,9.5
						c4.6,4.1,8.4,9.1,11.4,15c3,5.9,5.1,12.4,6.4,19.3c1.3,6.9,2,14.6,2,23v12.4H422v-14.8c0-3.7-0.1-6.9-0.3-9.7
						c-0.2-2.8-0.7-5.9-1.5-9.2c-0.8-3.4-1.8-6.2-3.2-8.4c-1.3-2.2-3.2-4-5.7-5.5c-2.5-1.5-5.5-2.2-8.9-2.2
						c-13,0-19.6,10.4-19.6,31.1v91c0,20.7,6.5,31,19.6,31c13,0,19.4-10.7,19.4-32.2v-16.9h-24.1v-30.6h66.7v108.4h-29.3l-5.4-14.8
						c-3.6,5.6-8.7,10.2-15.3,13.6c-6.6,3.5-13.5,5.2-20.5,5.2c-7.6,0-14.5-1.4-20.7-4.2c-6.2-2.8-11.3-6.4-15.3-11
						c-4-4.6-7.4-9.9-10.1-16.1c-2.7-6.2-4.7-12.5-5.9-18.9C340.8,682.6,340.2,676,340.2,669.2z"/>
				</g>
			</g>
		</g>
		<animate attributeName="opacity" values="1;0.7;0.7;1;1;1;1;0.2;1;1;1;1;1;1;1;1;1;0.4;1;1;1;1;0.2;1;1;1;1;0.2;1;1;1;1;1;1;0.3;1;1;1;0.4" dur="0.4s" repeatCount="indefinite" />
	</g>
	<path id="Cloud2" fill="#F7F6F6" d="M1343.2,916c14.7-12.8,29.5-25.6,44.5-37.8l-5-4.7c2.9-12.2-4.7-27.1-7.3-38.8
		c-15.3-0.3-32,3.3-43.3-9c-11.1-12.1-10-39.2-22.3-48.1c-9.6-6.9-25-4.8-37.4-7.1l-17.9-16.7c-2-6.2-4-13.1-5.2-15.6
		c-6.5-13.4-5.9-29.5-19.6-37.8c-7-4.2-13.4-3.6-20.4-9c-5.8-4.5-11.8-11.5-17.1-16.8c-6.1-6.2-7-11.7-11.1-18.1
		c-10.9-16.9-17.6-22.7-20.4-42.9c-1.2-8.3-2.5-25.9-8.6-32.3c-5-5.2-16.1-4.4-22.3-9.2c-10.7-8.4-12.9-22.5-26-28.3
		c-10.2-4.6-33.2,1.7-41.1-5.3c-4.2-3.7-9.4-6.7-15.8-8.4c-6.7-1.8-17.1,5.6-27.1-1.9c-10.5-8-12.7-30.1-22.2-37
		c-5.9-4.3-32.7-6.9-37.9-3.1c-6.7,4.9-0.2,8.9-4.1,15.1c-5.8,9.3-20,9.8-29.9,9c-24-2-38.6-20.1-64.9-15.2
		c-11.6,2.2-21.4,10.2-32.8,10c-10.3-0.2-25-4.3-35.9-5.8c-24.8-3.3-46.9-16.6-71.8-15.8c-13.4,0.4-32.1,2.4-44.9,7.5
		c-11.2,4.5-19.6,14.6-31.6,18.9c-19.6,6.9-41.5,6.7-61.6,12.6c-17.4,5.2-18.4,7.8-28.8,17.6c-24.8,23.4-70.9,16.5-99.2,39.9
		c-14,11.7-4.3,22.2-8.4,38.5c-3.6,14.3-19.7,22.9-30,32.9c-19.6,19.1-29.6,56.8-55.6,66.9c-11.7,4.6-26.4,1.1-37.1,6.3
		c-12.4,6-25.2,20.3-40.2,23.9c-22.6,5.4-44.9-3.7-67.9,3.5c-14.2,4.5-24.2,7.1-28.8,20.6c-5,14.4-1.8,34.9,0.5,49.4
		c3.9,24.2-7.5,50.4,3.9,70.9c10.2,18.3,25.5,35.3,43.2,46.6c9.4,6,20.5,6.6,29.6,11.4c8.7,4.7,9.6,13.1,17.4,19.8
		c11.1,9.6,14.9,5.3,29.2,7.3c12.5,1.8,20.4,7.7,30.7,15.1c20.4,14.7,32.9,26.7,58.9,25.3c26.5-1.5,36-6.5,56.7,7.9
		c26.3,18.3,38.9,11.8,67.7,10.3c25.6-1.3,33.5,4.2,55.6,15.4c19.4,9.8,39.9-0.2,59.7-5.5c17.7-4.8,34.2-5.8,51.6,0.6
		c12.7,4.6,22.9,15.6,38,12c8-1.9,14.9-10.7,22.9-13.2c21.2-6.7,49.9-1.2,71.5,1.4c38.2,4.5,71,2.4,107.3,15.4
		c45.5,16.3,85.9-3.5,129.8-12.2c34-6.7,60.8,5.4,92.5-8.4c27.9-12.2,54.1-26.3,79.4-42.3c6.1-1.4,9.5-4.1,14.2-9.3
		c8.9-6,17.7-12.2,26.5-18.7c3.6-2.7,7.2-5.4,10.8-8.2c3.6-0.9,7.7-1.5,12.2-1.9c13.6-1.1,36.9,0.6,45.2-13.8
		C1347.3,939.6,1342,927.4,1343.2,916z"/>
	<path id="Cloud1" fill="#FFFFFE" d="M1115.2,1194.4c-21.3-1.5-20.8-26.8-21.6-49.2c-22.2-0.9-27.5,4.1-34.7-16.2
		c-7.6-21.4-15-43-21-65c-10.1,9-29.2,15.7-38.8-0.3c-8.1-13.5,1.2-42.9-18.2-47.7c-5.6-1.4-15.9,3.2-22.2,3.1
		c-16.6-0.4-27.3-7.9-40.2-17.1c-13.1-9.4-18.4-21-33-25.9c-13.4-4.4-24.4-3.3-33.7-15.3c-6-7.7-10.5-16.8-17.6-24.9
		c-8-9.1-11.1-16.3-23.9-17.2c-11.1-0.8-23.3,7.2-34.6,2.8c-21.5-8.5-31-39.4-55.6-45c-17.9-4.1-32.4,14-49.8,7.2
		c-13.1-5.1-24.7-28.2-38.6-29.7c-5.6-0.6-15.6,6.9-20.5,9.5c-12.2,6.4-17.6,12.4-30.7,4.2c-16.2-10.1-15.1-25.3-20.9-40.9
		c-4.6-12.5-23.4-38.7-40.1-34.2c-7.8,2.1-10.5,9.6-15.1,16.3c-7.4,10.7-6.2,8.9-7.8,20.2c-1.4,10.1,1.1,14-7.1,22.1
		c-31.1,30.9-62.1-20.6-81-37.2c-28.3-24.7-74.9-5.2-108.1-22.7c-26.1-13.8-33.7-32.2-63.1-15.1c-19.1,11.1-16.3,35.4-37.1,46.6
		c-25.3,13.8-55.7,14.2-81.5,29.5c-26.6,15.8-54.1,30.7-82.2,42.3c-27.5,11.3-47.5,34-71,51.2c-9.7,7.1-24.3,12.1-32.5,20.8
		c-6.5,6.9-7.4,16.3-12.4,23.9c-8.4,12.8-23.4,19-32.8,29.9c-8.9,10.4-9,25.6-16.4,36.7c-14.7,22.1-28.6,45.5-42.9,68.5
		c-12.5,20.1-23.5,29.6-41,45.1c-17.2,15.2-31.9,27.1-53.8,33.7c-19.4,5.8-40,13.1-52.4,30.4c-9.8,13.7-7.3,16.5-3.8,30.9
		c4.7,19.4,2.4,40.2,0.3,59.7c-2.8,25.6,7.4,44.3-5.8,68.6c-14.8,27.2-23.1,61.2-6.3,89c13.2,21.9,31.6,53,55.2,64.1
		c27.9,13.2,68.6,11,99.1,15.1c54.2,7.2,113.7,28,168.5,23c26.1-2.4,50.1-8,76.6-8c74.6,0,147.5,4.6,219.4,25.6
		c45.6,13.3,85.4,19,133.4,14.7c46-4.2,90.5-19.4,136.8-20.8c77.2-2.4,152.9,25,230.2,7.7c37.8-8.5,71.6-26.6,110.6-30.6
		c36.7-3.7,70.9-12.8,107-19.4c43.6-7.9,90.6-8,132.8-21.7c32.2-10.4,60.4-14.2,93.9-13.9c53.1,0.5,100,15.6,136.1-29.1
		c13.3-16.5,25.5-31.8,20.3-53.2c-4-16.6-18.7-23.2-23.2-38.8c-5.9-20.5,3.5-42.8-9.9-62.9c-5.9-8.9-21.2-18.8-30.9-23
		c-5-2.1-11.2-1.5-16.4-4.1c-9.2-4.6-13.3-15.1-20.8-21.6c-12.5-11-28-18-43.8-21.6c-15.6-3.6-30.6-4.4-42.2-17.2
		c-6.6-7.3-7.7-16-13.4-23.6c-6.7-9-27.4-30.9-37.2-34.6c-10-3.8-5-0.1-16.9,3.4C1124.8,1194.1,1119.5,1194.7,1115.2,1194.4z"/>
</g>
<g id="Mask">
	<path fill="#5D5D5D" d="M-399-432.7v2071.3h1553.7V-432.7H-399z M768,1024.8H0V0h768V1024.8z"/>
	<g>
	</g>
	<g>
	</g>
	<g>
	</g>
	<g>
	</g>
	<g>
	</g>
	<g>
	</g>
</g>
</svg>
